<svg id="Capa_1" enable-background="new 0 0 512 512" height="512" viewBox="0 0 512 512" width="512" xmlns="http://www.w3.org/2000/svg"><path d="m512 256c0 3.51-.07 7-.22 10.48-5.49 136.52-117.91 245.52-255.78 245.52-141.38 0-256-114.62-256-256s114.62-256 256-256c19.43 0 38.36 2.17 56.55 6.27 21.97 4.95 42.86 12.73 62.28 22.93 7.49 3.93 14.75 8.21 21.78 12.84 47.79 31.47 84.42 78.53 102.63 133.94 2.62 7.97 4.86 16.11 6.69 24.4 3.98 17.91 6.07 36.52 6.07 55.62z" fill="#0079c6"/><path d="m467.34 290.56 15.76 55.58c4.18 14.73-11.81 26.98-24.94 19.11l-49.56-29.7c-9.09-5.45-20.89-1.28-24.55 8.66l-19.93 54.23c-5.28 14.37-25.41 14.88-31.4.79l-22.63-53.18c-4.15-9.76-16.16-13.32-24.96-7.41l-47.94 32.17c-12.71 8.53-29.32-2.9-25.88-17.83l12.96-56.28c2.38-10.33-5.24-20.28-15.83-20.67l-57.72-2.16c-15.3-.57-22.01-19.58-10.46-29.63l43.55-37.89c8-6.96 7.68-19.49-.66-26.04l-45.44-35.7c-12.04-9.45-6.31-28.76 8.94-30.12l57.55-5.1c10.56-.94 17.66-11.25 14.76-21.44l-15.76-55.59c-4.17-14.73 11.82-26.97 24.95-19.11l49.56 29.71c9.08 5.44 20.89 1.28 24.54-8.67l10.3-28.02c21.97 4.95 42.86 12.73 62.28 22.93l1.38 3.25c3.47 8.15 12.41 11.98 20.4 9.59 47.79 31.47 84.42 78.53 102.63 133.94-4.42 7.09-3.06 16.73 3.91 22.21l2.78 2.19c3.98 17.91 6.07 36.52 6.07 55.62 0 3.51-.07 7-.22 10.48l-29.68 2.64c-10.55.93-17.65 11.24-14.76 21.44z" fill="#118dd3"/><path d="m429.266 111.415 9.389-40.769c2.49-10.812-9.537-19.093-18.749-12.91l-34.721 23.303c-6.378 4.281-15.077 1.697-18.084-5.371l-16.389-38.524c-4.341-10.204-18.928-9.838-22.752.57l-14.436 39.286c-2.647 7.205-11.197 10.223-17.781 6.277l-35.901-21.516c-9.51-5.7-21.093 3.171-18.068 13.838l11.418 40.266c2.094 7.385-3.048 14.853-10.694 15.531l-41.69 3.7c-11.045.98-15.199 14.968-6.479 21.818l32.922 25.861c6.041 4.745 6.269 13.817.474 18.859l-31.545 27.449c-8.37 7.283-3.509 21.052 7.579 21.465l41.807 1.559c7.677.286 13.196 7.492 11.472 14.979l-9.389 40.769c-2.49 10.812 9.537 19.093 18.749 12.91l34.721-23.303c6.378-4.281 15.077-1.697 18.084 5.371l16.389 38.524c4.341 10.204 18.928 9.838 22.752-.57l14.435-39.286c2.647-7.205 11.197-10.223 17.781-6.277l35.901 21.516c9.51 5.7 21.093-3.171 18.068-13.838l-11.418-40.267c-2.094-7.385 3.048-14.853 10.694-15.531l41.69-3.7c11.045-.98 15.199-14.968 6.479-21.818l-32.922-25.861c-6.041-4.745-6.269-13.817-.474-18.859l31.545-27.449c8.37-7.283 3.509-21.052-7.579-21.465l-41.807-1.559c-7.676-.286-13.195-7.491-11.471-14.978z" fill="#fbd307"/><path d="m388.025 150.104 6.206-26.95c1.002-4.349-3.836-7.68-7.541-5.193l-22.954 15.406c-2.565 1.722-6.065.683-7.274-2.161l-10.83-25.456c-1.746-4.104-7.613-3.957-9.152.229l-9.539 25.96c-1.065 2.898-4.504 4.112-7.152 2.525l-23.722-14.217c-3.825-2.293-8.484 1.276-7.268 5.566l7.544 26.607c.842 2.97-1.226 5.974-4.301 6.247l-27.548 2.445c-4.443.394-6.114 6.021-2.606 8.776l21.755 17.089c2.43 1.909 2.521 5.558.19 7.586l-20.855 18.146c-3.367 2.929-1.411 8.468 3.048 8.634l27.636 1.031c3.088.115 5.308 3.013 4.614 6.025l-6.206 26.95c-1.002 4.349 3.836 7.68 7.541 5.193l22.954-15.406c2.565-1.722 6.065-.683 7.274 2.161l10.83 25.456c1.746 4.104 7.613 3.957 9.152-.229l9.539-25.96c1.065-2.898 4.504-4.112 7.152-2.525l23.722 14.217c3.825 2.293 8.484-1.276 7.268-5.566l-7.544-26.607c-.842-2.97 1.226-5.974 4.301-6.247l27.548-2.445c4.443-.394 6.114-6.021 2.606-8.776l-21.755-17.089c-2.43-1.909-2.521-5.558-.191-7.586l20.855-18.146c3.367-2.929 1.411-8.468-3.048-8.634l-27.636-1.031c-3.087-.115-5.307-3.014-4.613-6.025z" fill="#fb636f"/><path d="m375.345 177.83-52.948 42.043c-9.391-3.424-18.493-7.364-27.295-11.81l64.446-48.358z" fill="#fa2a3b"/><path d="m162.73 261.63h25.873v47.661h-25.873z" fill="#3d322c" transform="matrix(.794 -.608 .608 .794 -137.368 165.645)"/><path d="m35.54 274.328h339.758v34.725h-339.758z" fill="#3d322c" transform="matrix(.794 -.608 .608 .794 -135.024 185.02)"/><path d="m42.248 294.118h339.758v12.661h-339.758z" fill="#231a16" transform="matrix(.794 -.608 .608 .794 -138.967 190.903)"/><path d="m247.235 144.167c8.765 11.445 6.593 27.828-4.851 36.594l-186.85 143.106 17.388 22.703 207.572-158.977 18.63 24.325 24.325-18.63-47.817-62.434c-5.145-6.717-14.76-7.992-21.478-2.847l-5.317 4.072c-3.78 2.895-4.497 8.308-1.602 12.088z" fill="#3d322c"/><path d="m233.188 229.401-4.671 3.577c-2.076 1.581-4.765 2.233-7.314 1.603-4.034-.999-8.473-.236-12.032 2.49l-24.039 18.42c-3.559 2.726-5.453 6.812-5.539 10.967-.054 2.616-1.385 5.042-3.452 6.634l-11.632 8.909c-2.077 1.591-4.776 2.242-7.315 1.613-4.032-1.009-8.473-.236-12.032 2.49l-24.038 18.411c-3.559 2.726-5.462 6.811-5.539 10.967-.056 2.626-1.386 5.052-3.462 6.633l-78.74 60.315c-3.69-6.481-7.095-13.136-10.209-19.935l38.457-62.649c.616-.998 1.428-1.869 2.387-2.559l142.933-102.595c3.899-2.782 9.29-1.976 12.197 1.819l15.685 20.479c2.976 3.885 2.24 9.436-1.645 12.411z" fill="#d5694c"/><path d="m280.492 187.595-249.284 190.925c-2.063-3.764-4.018-7.584-5.876-11.452l247.465-189.531z" fill="#231a16"/><path d="m267.724 273.785-137.597 116.295c-1.307 1.108-2.267 2.564-2.765 4.193l-7.174 23.753c-5.042 16.652-21.157 27.347-38.359 25.611-8.155-7.577-15.789-15.661-22.868-24.195-7.106-8.568-13.654-17.607-19.578-27.027l79.783-61.105c2.077-1.591 4.755-2.234 7.306-1.614 4.032 1.009 8.473.236 12.032-2.49l24.048-18.409c3.559-2.726 5.453-6.813 5.539-10.967.044-2.617 1.386-5.052 3.452-6.634l11.632-8.909c2.077-1.591 4.766-2.243 7.315-1.613 4.032 1.009 8.473.235 12.032-2.49l24.038-18.411c3.559-2.726 5.463-6.811 5.539-10.967.056-2.626 1.386-5.052 3.463-6.643l4.671-3.577c3.874-2.967 9.435-2.229 12.402 1.644l16.398 21.411c2.871 3.751 2.292 9.101-1.309 12.144z" fill="#d5694c"/><path d="m267.724 273.785-137.597 116.295c-1.307 1.108-2.267 2.564-2.765 4.193l-7.174 23.753c-5.042 16.652-21.157 27.347-38.359 25.611-8.155-7.577-15.789-15.661-22.868-24.195l208.583-159.743 1.488 1.942c2.872 3.751 2.293 9.101-1.308 12.144z" fill="#a64c31"/><path d="m227.38 207.258 7.453 9.731c2.974 3.882 2.237 9.435-1.645 12.408l-4.671 3.577c-2.074 1.588-4.761 2.238-7.309 1.61-4.033-1.004-8.473-.236-12.032 2.489l-24.042 18.413c-3.559 2.726-5.457 6.812-5.539 10.968-.057 2.624-1.385 5.049-3.459 6.637l-11.631 8.909c-2.074 1.588-4.77 2.245-7.309 1.61-4.033-1.004-8.473-.236-12.032 2.49l-24.042 18.413c-3.559 2.726-5.457 6.812-5.539 10.968-.057 2.624-1.385 5.049-3.459 6.637l-37.05 28.376-12.834-16.757z" fill="#a64c31"/><path d="m92.372 337.25-51.13 39.16c-3.266 2.492-5.176 6.093-5.625 9.866-9.298-15.698-16.937-32.417-22.729-49.9l49.67-38.042z" fill="#3d322c"/><path d="m411.92 138.438c.652-2.443-1.185-4.841-3.714-4.849-10.552-.031-20.817 3.432-29.194 9.848l-26.463 20.268 15.793 20.621 26.463-20.268c8.378-6.416 14.396-15.425 17.115-25.62z" fill="#b3d8fb"/><path d="m411.26 135.101c-.176-.23-.744-.148-1.659.301-3.805 1.906-7.88 4.234-12.049 6.898s-8.431 5.651-12.623 8.862l-26.461 20.266-5.916-7.725 26.461-20.266c4.192-3.21 8.855-5.674 13.791-7.337 4.936-1.664 10.135-2.522 15.411-2.508 1.261.003 2.351.604 3.045 1.509z" fill="#62b4fd"/><path d="m221.058 455.952-52.948 40.543c-9.391-3.424-18.493-7.364-27.295-11.81l64.446-49.358z" fill="#118dd3"/><path d="m260.244 413.421c.652-2.443-1.185-4.841-3.714-4.849-10.552-.031-20.817 3.432-29.194 9.848l-26.463 20.268 15.793 20.621 26.463-20.268c8.377-6.416 14.395-15.425 17.115-25.62z" fill="#b3d8fb"/><path d="m259.583 410.084c-.176-.23-.744-.148-1.659.301-3.805 1.906-7.88 4.234-12.049 6.898s-8.431 5.651-12.623 8.862l-26.461 20.266-5.916-7.725 26.461-20.266c4.192-3.21 8.855-5.674 13.791-7.337 4.936-1.664 10.135-2.522 15.411-2.508 1.262.003 2.352.604 3.045 1.509z" fill="#62b4fd"/><path d="m48.437 281.583-41.912 32.1c-2.203-9.482-3.869-19.134-4.962-28.923l31.076-23.792z" fill="#118dd3"/><path d="m168.114 111.002-167.571 128.34c.365-5.641.924-11.307 1.677-16.987.879-6.632 2.007-13.16 3.365-19.598l146.733-112.38z" fill="#118dd3"/><path d="m87.621 239.059c.652-2.443-1.185-4.841-3.714-4.849-10.552-.031-20.817 3.432-29.194 9.848l-26.463 20.268 15.793 20.621 26.463-20.268c8.378-6.416 14.396-15.424 17.115-25.62z" fill="#b3d8fb"/><path d="m86.961 235.723c-.176-.23-.744-.149-1.659.301-3.805 1.906-7.88 4.234-12.049 6.898s-8.431 5.651-12.623 8.862l-26.461 20.266-5.916-7.725 26.461-20.266c4.192-3.21 8.855-5.674 13.791-7.337 4.935-1.664 10.135-2.522 15.411-2.508 1.262.003 2.352.604 3.045 1.509z" fill="#62b4fd"/><path d="m206.076 69.41c.652-2.443-1.185-4.841-3.714-4.849-10.552-.031-20.817 3.432-29.194 9.848l-26.463 20.268 15.793 20.621 26.463-20.268c8.378-6.417 14.395-15.425 17.115-25.62z" fill="#b3d8fb"/><path d="m205.415 66.073c-.176-.23-.744-.149-1.659.301-3.805 1.906-7.88 4.234-12.049 6.898s-8.431 5.651-12.623 8.862l-26.461 20.266-5.916-7.725 26.461-20.266c4.192-3.21 8.855-5.674 13.791-7.337 4.936-1.664 10.135-2.522 15.411-2.508 1.262.003 2.352.604 3.045 1.509z" fill="#62b4fd"/></svg>