<svg height="512" viewBox="0 0 64 64" width="512" xmlns="http://www.w3.org/2000/svg"><g id="movie-cinema-TV-watch-relax"><rect fill="#46f8ff" height="32" rx="2" width="58" x="3" y="3"/><path d="m29 33a5.8 5.8 0 0 1 -.35 2 5.99 5.99 0 0 1 -11.3 0 5.8 5.8 0 0 1 -.35-2 6 6 0 0 1 12 0z" fill="#ffcd00"/><path d="m61 50v11h-6v-13h4a2.006 2.006 0 0 1 2 2z" fill="#ff7956"/><path d="m61 50v11h-3v-11a2.006 2.006 0 0 0 -2-2h3a2.006 2.006 0 0 1 2 2z" fill="#ff5023"/><path d="m61 5v28a2.006 2.006 0 0 1 -2 2h-5a2.006 2.006 0 0 0 2-2v-28a2.006 2.006 0 0 0 -2-2h5a2.006 2.006 0 0 1 2 2z" fill="#00d7df"/><path d="m55 45v14h-46v-14a2.006 2.006 0 0 1 2-2h42a2.006 2.006 0 0 1 2 2z" fill="#fee9ab"/><path d="m55 45v14h-4v-14a2.006 2.006 0 0 0 -2-2h4a2.006 2.006 0 0 1 2 2z" fill="#ffde55"/><path d="m48 41v2h-14v-2a2.006 2.006 0 0 1 2-2h10a2.006 2.006 0 0 1 2 2z" fill="#ff3051"/><path d="m47 33a5.8 5.8 0 0 1 -.35 2 5.99 5.99 0 0 1 -11.3 0 5.8 5.8 0 0 1 -.35-2 6 6 0 0 1 12 0z" fill="#ffcd00"/><path d="m47 33a5.8 5.8 0 0 1 -.35 2 5.981 5.981 0 0 1 -5.65 4 5.761 5.761 0 0 1 -2-.35 5.952 5.952 0 0 0 3.65-3.65 5.8 5.8 0 0 0 .35-2 5.981 5.981 0 0 0 -4-5.65 5.8 5.8 0 0 1 2-.35 6 6 0 0 1 6 6z" fill="#ebbf00"/><path d="m29 33a5.8 5.8 0 0 1 -.35 2 5.981 5.981 0 0 1 -5.65 4 5.761 5.761 0 0 1 -2-.35 5.952 5.952 0 0 0 3.65-3.65 5.8 5.8 0 0 0 .35-2 5.981 5.981 0 0 0 -4-5.65 5.8 5.8 0 0 1 2-.35 6 6 0 0 1 6 6z" fill="#ebbf00"/><path d="m40 17-12 6v-12z" fill="#ff3051"/><path d="m30 41v2h-14v-2a2.006 2.006 0 0 1 2-2h10a2.006 2.006 0 0 1 2 2z" fill="#9cdd05"/><path d="m9 59v2h-6v-11a2.006 2.006 0 0 1 2-2h4z" fill="#ff7956"/><path d="m56 24h2v2h-2z"/><path d="m54 27h4v2h-4z"/><path d="m52 30h6v2h-6z"/><path d="m8.829 10.414h5.171v2h-5.171z" transform="matrix(.707 -.707 .707 .707 -4.728 11.414)"/><path d="m5.829 7.414h5.171v2h-5.171z" transform="matrix(.707 -.707 .707 .707 -3.485 8.415)"/><path d="m59 36a3.009 3.009 0 0 0 3-3v-28a3.009 3.009 0 0 0 -3-3h-54a3.009 3.009 0 0 0 -3 3v28a3.009 3.009 0 0 0 3 3h11.69a6.743 6.743 0 0 0 1.42 2h-.11a3.009 3.009 0 0 0 -3 3v1h-4a3.009 3.009 0 0 0 -3 3v2h-3a3.009 3.009 0 0 0 -3 3v11a1 1 0 0 0 1 1h6a1 1 0 0 0 1-1v-1h44v1a1 1 0 0 0 1 1h6a1 1 0 0 0 1-1v-11a3.009 3.009 0 0 0 -3-3h-3v-2a3.009 3.009 0 0 0 -3-3h-4v-1a3.009 3.009 0 0 0 -3-3h-.11a6.743 6.743 0 0 0 1.42-2zm-51 24h-4v-10a1 1 0 0 1 1-1h3zm48-11h3a1 1 0 0 1 1 1v10h-4zm-39.92-15h-11.08a1 1 0 0 1 -1-1v-28a1 1 0 0 1 1-1h54a1 1 0 0 1 1 1v28a1 1 0 0 1 -1 1h-11.08a6.634 6.634 0 0 0 .08-1 7 7 0 0 0 -14 0 6.634 6.634 0 0 0 .08 1h-4.16a6.634 6.634 0 0 0 .08-1 7 7 0 0 0 -14 0 6.634 6.634 0 0 0 .08 1zm11.92 4h-.11a6.743 6.743 0 0 0 1.42-2h5.38a6.743 6.743 0 0 0 1.42 2h-.11a3.009 3.009 0 0 0 -3 3v1h-2v-1a3.009 3.009 0 0 0 -3-3zm-10-5a5 5 0 1 1 5 5 5 5 0 0 1 -5-5zm-1 8a1 1 0 0 1 1-1h10a1 1 0 0 1 1 1v1h-12zm36 3a1 1 0 0 1 1 1v13h-44v-13a1 1 0 0 1 1-1zm-7-4a1 1 0 0 1 1 1v1h-12v-1a1 1 0 0 1 1-1zm-5-2a5 5 0 1 1 5-5 5 5 0 0 1 -5 5z"/><path d="m40.45 16.11-12-6a1 1 0 0 0 -1.45.89v12a1 1 0 0 0 .47.85 1.014 1.014 0 0 0 .53.15 1.03 1.03 0 0 0 .45-.11l12-6a1 1 0 0 0 0-1.78zm-11.45 5.27v-8.76l8.76 4.38z"/></g></svg>